<svg aria-hidden="true" style="position: absolute; width: 0; height: 0; overflow: hidden;" version="1.1" xmlns="http://www.w3.org/2000/svg" xmlns:xlink="http://www.w3.org/1999/xlink">
<defs>
<symbol id="icon-x" viewBox="0 0 32 32">
<path fill="none" stroke="#fafafa" style="stroke: var(--color1, #fafafa)" stroke-linejoin="round" stroke-linecap="round" stroke-miterlimit="4" stroke-width="2.2857" d="M24 8l-16 16"></path>
<path fill="none" stroke="#fafafa" style="stroke: var(--color1, #fafafa)" stroke-linejoin="round" stroke-linecap="round" stroke-miterlimit="4" stroke-width="2.2857" d="M8 8l16 16"></path>
</symbol>
<symbol id="icon-menu" viewBox="0 0 32 32">
<path fill="none" stroke="#fafafa" style="stroke: var(--color1, #fafafa)" stroke-linejoin="round" stroke-linecap="round" stroke-miterlimit="4" stroke-width="2.2857" d="M4 11.333h24M4 20.667h24"></path>
</symbol>
<symbol id="icon-arrow-narrow-right" viewBox="0 0 32 32">
<path fill="none" stroke-linejoin="round" stroke-linecap="round" stroke-miterlimit="4" stroke-width="2.6667" d="M5.333 16h21.333"></path>
<path fill="none" stroke-linejoin="round" stroke-linecap="round" stroke-miterlimit="4" stroke-width="2.6667" d="M18.667 8l8 8-8 8"></path>
</symbol>
<symbol id="icon-arrow-narrow-right1" viewBox="0 0 32 32">
<path stroke-linejoin="round" stroke-linecap="round" stroke-miterlimit="4" stroke-width="2.6667" d="M26.667 16h-21.333"></path>
<path stroke-linejoin="round" stroke-linecap="round" stroke-miterlimit="4" stroke-width="2.6667" d="M13.333 24l-8-8 8-8"></path>
</symbol>
<symbol id="icon-arrow-down" viewBox="0 0 32 32">
<path fill="none" stroke="#fafafa" style="stroke: var(--color1, #fafafa)" stroke-linejoin="miter" stroke-linecap="butt" stroke-miterlimit="4" stroke-width="3.2" d="M24 12l-8 8-8-8"></path>
</symbol>
<symbol id="icon-arrow-up" viewBox="0 0 32 32">
<path fill="none" stroke="#fafafa" style="stroke: var(--color1, #fafafa)" stroke-linejoin="miter" stroke-linecap="butt" stroke-miterlimit="4" stroke-width="3.2" d="M24 20l-8-8-8 8"></path>
</symbol>
<symbol id="icon-massage" viewBox="0 0 32 32">
<path fill="#ed3b44" style="fill: var(--color3, #ed3b44)" d="M6.667 0h18.667c3.682 0 6.667 2.985 6.667 6.667v18.667c0 3.682-2.985 6.667-6.667 6.667h-18.667c-3.682 0-6.667-2.985-6.667-6.667v-18.667c0-3.682 2.985-6.667 6.667-6.667z"></path>
<path fill="none" stroke="#fafafa" style="stroke: var(--color1, #fafafa)" stroke-linejoin="round" stroke-linecap="round" stroke-miterlimit="4" stroke-width="1.3333" d="M12.063 15.486c-0.041-0.267-0.063-0.541-0.063-0.819 0-2.946 2.403-5.333 5.368-5.333s5.368 2.388 5.368 5.333c0 0.665-0.123 1.302-0.347 1.89-0.047 0.122-0.070 0.183-0.080 0.231s-0.015 0.080-0.016 0.129c-0.001 0.049 0.005 0.102 0.019 0.21l0.268 2.18c0.029 0.236 0.044 0.354 0.004 0.44-0.034 0.075-0.095 0.135-0.171 0.168-0.087 0.037-0.204 0.020-0.44-0.014l-2.123-0.311c-0.111-0.016-0.166-0.024-0.217-0.024s-0.084 0.004-0.133 0.014c-0.049 0.010-0.113 0.034-0.239 0.081-0.589 0.221-1.227 0.341-1.894 0.341-0.279 0-0.553-0.021-0.82-0.062M13.088 22.667c1.977 0 3.579-1.642 3.579-3.667s-1.602-3.667-3.579-3.667c-1.977 0-3.579 1.642-3.579 3.667 0 0.407 0.065 0.799 0.184 1.164 0.051 0.155 0.076 0.232 0.084 0.285 0.009 0.055 0.010 0.086 0.007 0.142-0.003 0.053-0.016 0.114-0.043 0.234l-0.408 1.841 1.997-0.273c0.109-0.015 0.163-0.022 0.211-0.022 0.050 0 0.077 0.003 0.126 0.013 0.047 0.009 0.116 0.034 0.255 0.083 0.366 0.129 0.758 0.199 1.166 0.199z"></path>
</symbol>
<symbol id="icon-art" viewBox="0 0 32 32">
<path fill="#ed3b44" style="fill: var(--color3, #ed3b44)" d="M6.667 0h18.667c3.682 0 6.667 2.985 6.667 6.667v18.667c0 3.682-2.985 6.667-6.667 6.667h-18.667c-3.682 0-6.667-2.985-6.667-6.667v-18.667c0-3.682 2.985-6.667 6.667-6.667z"></path>
<path fill="none" stroke="#fafafa" style="stroke: var(--color1, #fafafa)" stroke-linejoin="round" stroke-linecap="round" stroke-miterlimit="4" stroke-width="1.3333" d="M16.519 18l-2.519-2.519"></path>
<path fill="none" stroke="#fafafa" style="stroke: var(--color1, #fafafa)" stroke-linejoin="round" stroke-linecap="round" stroke-miterlimit="4" stroke-width="1.3333" d="M9.333 22.667c1.333 0 3.072 0.228 3.983-0.683s0.911-2.389 0-3.3c-0.911-0.911-2.389-0.911-3.3 0s0 2.65-0.683 3.983z"></path>
<path fill="none" stroke="#fafafa" style="stroke: var(--color1, #fafafa)" stroke-linejoin="round" stroke-linecap="round" stroke-miterlimit="4" stroke-width="1.3333" d="M13.333 18.667c-0.328-0.328-0.491-0.491-0.584-0.663-0.222-0.411-0.213-0.909 0.025-1.311 0.099-0.168 0.269-0.325 0.609-0.64l6.579-6.091c0.579-0.536 1.479-0.519 2.038 0.039s0.576 1.458 0.039 2.038l-6.091 6.579c-0.315 0.34-0.472 0.51-0.64 0.609-0.403 0.238-0.9 0.247-1.311 0.025-0.172-0.093-0.335-0.256-0.663-0.584z"></path>
</symbol>
<symbol id="icon-time" viewBox="0 0 32 32">
<path fill="#ed3b44" style="fill: var(--color3, #ed3b44)" d="M6.667 0h18.667c3.682 0 6.667 2.985 6.667 6.667v18.667c0 3.682-2.985 6.667-6.667 6.667h-18.667c-3.682 0-6.667-2.985-6.667-6.667v-18.667c0-3.682 2.985-6.667 6.667-6.667z"></path>
<path fill="none" stroke="#fafafa" style="stroke: var(--color1, #fafafa)" stroke-linejoin="round" stroke-linecap="round" stroke-miterlimit="4" stroke-width="1.3333" d="M20.108 9.333h-8.217c-0.308 0-0.558 0.25-0.558 0.558 0 1.777 0.706 3.481 1.962 4.737l0.813 0.813c0.081 0.081 0.121 0.121 0.15 0.16 0.176 0.236 0.176 0.561 0 0.797-0.029 0.039-0.069 0.079-0.15 0.16l-0.813 0.813c-1.256 1.256-1.962 2.96-1.962 4.737 0 0.308 0.25 0.558 0.558 0.558h8.217c0.308 0 0.558-0.25 0.558-0.558 0-1.777-0.706-3.481-1.962-4.737l-0.813-0.813c-0.081-0.081-0.121-0.121-0.15-0.16-0.176-0.236-0.176-0.561 0-0.797 0.029-0.039 0.069-0.079 0.15-0.16l0.813-0.813c1.256-1.256 1.962-2.96 1.962-4.737 0-0.308-0.25-0.558-0.558-0.558z"></path>
</symbol>
<symbol id="icon-human" viewBox="0 0 32 32">
<path fill="#ed3b44" style="fill: var(--color3, #ed3b44)" d="M6.667 0h18.667c3.682 0 6.667 2.985 6.667 6.667v18.667c0 3.682-2.985 6.667-6.667 6.667h-18.667c-3.682 0-6.667-2.985-6.667-6.667v-18.667c0-3.682 2.985-6.667 6.667-6.667z"></path>
<path fill="none" stroke="#fafafa" style="stroke: var(--color1, #fafafa)" stroke-linejoin="round" stroke-linecap="round" stroke-miterlimit="4" stroke-width="1.3333" d="M21.333 22c0-0.93 0-1.396-0.115-1.774-0.259-0.852-0.926-1.519-1.778-1.778-0.379-0.115-0.844-0.115-1.774-0.115h-3.333c-0.93 0-1.396 0-1.774 0.115-0.852 0.259-1.519 0.926-1.778 1.778-0.115 0.379-0.115 0.844-0.115 1.774"></path>
<path fill="none" stroke="#fafafa" style="stroke: var(--color1, #fafafa)" stroke-linejoin="round" stroke-linecap="round" stroke-miterlimit="4" stroke-width="1.3333" d="M16 16c1.657 0 3-1.343 3-3s-1.343-3-3-3c-1.657 0-3 1.343-3 3s1.343 3 3 3z"></path>
</symbol>
<symbol id="icon-githab" viewBox="0 0 32 32">
<path fill="none" stroke="#fafafa" style="stroke: var(--color1, #fafafa)" stroke-linejoin="miter" stroke-linecap="butt" stroke-miterlimit="4" stroke-width="0.5818" d="M16 0.291c8.676 0 15.709 7.033 15.709 15.709s-7.033 15.709-15.709 15.709c-8.676 0-15.709-7.033-15.709-15.709s7.033-15.709 15.709-15.709z"></path>
<path fill="#fafafa" style="fill: var(--color1, #fafafa)" d="M12.718 19.291c-0.612 0-1.15-0.141-1.614-0.423-0.461-0.282-0.821-0.682-1.082-1.2-0.258-0.521-0.386-1.138-0.386-1.85 0-0.721 0.13-1.341 0.391-1.859 0.264-0.521 0.624-0.921 1.082-1.2 0.458-0.282 0.979-0.423 1.564-0.423 0.364 0 0.703 0.055 1.018 0.164 0.318 0.106 0.6 0.259 0.845 0.459 0.248 0.2 0.453 0.436 0.614 0.709 0.164 0.27 0.274 0.57 0.332 0.9h-1.045c-0.064-0.203-0.148-0.383-0.255-0.541-0.106-0.161-0.233-0.297-0.382-0.409-0.149-0.115-0.317-0.201-0.505-0.259-0.185-0.061-0.391-0.091-0.618-0.091-0.382 0-0.726 0.098-1.032 0.295-0.306 0.194-0.548 0.48-0.727 0.859s-0.268 0.842-0.268 1.391 0.089 1.012 0.268 1.391c0.179 0.379 0.424 0.667 0.736 0.864 0.312 0.194 0.667 0.291 1.064 0.291 0.367 0 0.686-0.074 0.959-0.223 0.273-0.151 0.485-0.364 0.636-0.636s0.227-0.595 0.227-0.968l0.268 0.050h-1.936v-0.845h2.664v0.773c0 0.57-0.121 1.062-0.364 1.477-0.239 0.415-0.573 0.736-1 0.964-0.424 0.227-0.909 0.341-1.455 0.341zM16.25 19.2v-6.773h1.023v2.945h3.373v-2.945h1.023v6.773h-1.023v-2.95h-3.373v2.95h-1.023z"></path>
</symbol>
<symbol id="icon-instagram" viewBox="0 0 32 32">
<path fill="none" stroke="#fafafa" style="stroke: var(--color1, #fafafa)" stroke-linejoin="miter" stroke-linecap="butt" stroke-miterlimit="4" stroke-width="0.5818" d="M16 0.291c8.676 0 15.709 7.033 15.709 15.709s-7.033 15.709-15.709 15.709c-8.676 0-15.709-7.033-15.709-15.709s7.033-15.709 15.709-15.709z"></path>
<path fill="#fafafa" style="fill: var(--color1, #fafafa)" d="M13.205 12.427v6.773h-1.023v-6.773h1.023zM16.977 19.291c-0.612 0-1.15-0.141-1.614-0.423-0.461-0.282-0.821-0.682-1.082-1.2-0.258-0.521-0.386-1.138-0.386-1.85 0-0.721 0.13-1.341 0.391-1.859 0.264-0.521 0.624-0.921 1.082-1.2 0.458-0.282 0.979-0.423 1.564-0.423 0.364 0 0.703 0.055 1.018 0.164 0.318 0.106 0.6 0.259 0.845 0.459 0.248 0.2 0.453 0.436 0.614 0.709 0.164 0.27 0.274 0.57 0.332 0.9h-1.045c-0.064-0.203-0.148-0.383-0.255-0.541-0.106-0.161-0.233-0.297-0.382-0.409-0.148-0.115-0.317-0.201-0.505-0.259-0.185-0.061-0.391-0.091-0.618-0.091-0.382 0-0.726 0.098-1.032 0.295-0.306 0.194-0.549 0.48-0.727 0.859s-0.268 0.842-0.268 1.391 0.089 1.012 0.268 1.391c0.179 0.379 0.424 0.667 0.736 0.864 0.312 0.194 0.667 0.291 1.064 0.291 0.367 0 0.686-0.074 0.959-0.223 0.273-0.151 0.485-0.364 0.636-0.636s0.227-0.595 0.227-0.968l0.268 0.050h-1.936v-0.845h2.664v0.773c0 0.57-0.121 1.062-0.364 1.477-0.239 0.415-0.573 0.736-1 0.964-0.424 0.227-0.909 0.341-1.455 0.341z"></path>
</symbol>
<symbol id="icon-telegram" viewBox="0 0 32 32">
<path fill="none" stroke="#fafafa" style="stroke: var(--color1, #fafafa)" stroke-linejoin="miter" stroke-linecap="butt" stroke-miterlimit="4" stroke-width="0.5818" d="M16 0.291c8.676 0 15.709 7.033 15.709 15.709s-7.033 15.709-15.709 15.709c-8.676 0-15.709-7.033-15.709-15.709s7.033-15.709 15.709-15.709z"></path>
<path fill="#fafafa" style="fill: var(--color1, #fafafa)" d="M10.1 13.305v-0.877h5.245v0.877h-2.109v5.895h-1.018v-5.895h-2.118zM18.487 19.291c-0.612 0-1.15-0.141-1.614-0.423-0.461-0.282-0.821-0.682-1.082-1.2-0.258-0.521-0.386-1.138-0.386-1.85 0-0.721 0.13-1.341 0.391-1.859 0.264-0.521 0.624-0.921 1.082-1.2 0.458-0.282 0.979-0.423 1.564-0.423 0.364 0 0.703 0.055 1.018 0.164 0.318 0.106 0.6 0.259 0.846 0.459 0.248 0.2 0.453 0.436 0.614 0.709 0.164 0.27 0.274 0.57 0.332 0.9h-1.045c-0.064-0.203-0.148-0.383-0.255-0.541-0.106-0.161-0.233-0.297-0.382-0.409-0.148-0.115-0.317-0.201-0.505-0.259-0.185-0.061-0.391-0.091-0.618-0.091-0.382 0-0.726 0.098-1.032 0.295-0.306 0.194-0.548 0.48-0.727 0.859s-0.268 0.842-0.268 1.391 0.089 1.012 0.268 1.391c0.179 0.379 0.424 0.667 0.736 0.864 0.312 0.194 0.667 0.291 1.064 0.291 0.367 0 0.686-0.074 0.959-0.223 0.273-0.151 0.485-0.364 0.636-0.636s0.227-0.595 0.227-0.968l0.268 0.050h-1.936v-0.845h2.664v0.773c0 0.57-0.121 1.062-0.364 1.477-0.239 0.415-0.573 0.736-1 0.964-0.424 0.227-0.909 0.341-1.455 0.341z"></path>
</symbol>
<symbol id="icon-youtube" viewBox="0 0 32 32">
<path fill="none" stroke="#fafafa" style="stroke: var(--color1, #fafafa)" stroke-linejoin="miter" stroke-linecap="butt" stroke-miterlimit="4" stroke-width="0.5818" d="M16 0.291c8.676 0 15.709 7.033 15.709 15.709s-7.033 15.709-15.709 15.709c-8.676 0-15.709-7.033-15.709-15.709s7.033-15.709 15.709-15.709z"></path>
<path fill="#fafafa" style="fill: var(--color1, #fafafa)" d="M10.205 12.427h1.159l1.773 3.082h0.073l1.764-3.082h1.168l-2.459 4.114v2.659h-1.023v-2.659l-2.455-4.114zM16.332 13.305v-0.877h5.245v0.877h-2.109v5.895h-1.018v-5.895h-2.118z"></path>
</symbol>
</defs>
</svg>
